<svg width="45" height="46" viewBox="0 0 45 46" fill="none" xmlns="http://www.w3.org/2000/svg">
<g clip-path="url(#clip0_160_710)">
<path d="M38.4933 17.6761L38.6708 17.52C40.6096 15.8176 41.2745 13.1573 40.3648 10.7425C39.455 8.3278 37.2002 6.76771 34.6202 6.76771H25.353L25.3071 6.5397C24.8022 4.00943 22.8304 2.10351 20.2849 1.68422C17.7393 1.26493 15.2603 2.43787 13.9703 4.67203L9.33899 12.6944L9.11864 12.6194C6.67483 11.7915 4.03821 12.5459 2.40237 14.5414C0.766538 16.5368 0.54236 19.2691 1.83236 21.504L6.46366 29.5263L6.28844 29.6801C4.34962 31.3825 3.68472 34.0429 4.59446 36.4576C5.50419 38.8723 7.75901 40.4324 10.3398 40.4324H19.6031L19.649 40.6604C20.154 43.1907 22.1258 45.0966 24.6713 45.5159C25.0141 45.5725 25.3561 45.6001 25.6943 45.6001C27.8634 45.6001 29.8703 44.4616 30.9867 42.5281L35.6149 34.5126L35.8444 34.5907C36.5032 34.8133 37.175 34.922 37.8383 34.922C39.6364 34.922 41.3656 34.1263 42.5607 32.6687C44.1965 30.6732 44.4207 27.941 43.1299 25.7061L38.4941 17.6768L38.4933 17.6761ZM34.6195 10.0577C36.0732 10.0577 36.95 11.0103 37.2859 11.9025C37.6218 12.7946 37.592 14.0884 36.5001 15.0479L35.7771 15.6829H29.5857C28.1603 15.6829 26.9231 14.6684 26.6438 13.2705L26.0026 10.0585H34.6202L34.6195 10.0577ZM16.8188 6.31705C17.5457 5.05842 18.8089 4.77532 19.7493 4.93064C20.6896 5.0852 21.796 5.75851 22.0798 7.18394L22.2681 8.12733L19.1724 13.4893C18.4593 14.7242 16.9619 15.2881 15.6115 14.8306L12.5089 13.7801L16.8173 6.31705H16.8188ZM4.68092 19.859C3.95405 18.6004 4.3412 17.3647 4.94565 16.6279C5.40472 16.0678 6.17137 15.5751 7.1163 15.5751C7.4147 15.5751 7.73147 15.624 8.06201 15.7365L8.97326 16.0448L12.069 21.4068C12.7821 22.6417 12.5219 24.2202 11.4507 25.1613L8.98934 27.3228L4.68092 19.859ZM10.3398 37.1416C8.88604 37.1416 8.00921 36.189 7.67332 35.2969C7.33743 34.4048 7.36727 33.1109 8.4591 32.1515L9.18214 31.5164H15.3735C16.799 31.5164 18.0362 32.531 18.3154 33.9289L18.9566 37.1408H10.339L10.3398 37.1416ZM21.542 33.2854C20.9566 30.3542 18.3629 28.2264 15.3735 28.2264H12.945L13.6222 27.6319C15.8678 25.6594 16.4133 22.3495 14.919 19.7603L13.7048 17.657L14.5579 17.9462C15.2182 18.1696 15.8946 18.2767 16.5641 18.2767C18.7638 18.2767 20.8771 17.1183 22.0232 15.1336L23.2405 13.0249L23.418 13.9132C24.0034 16.8444 26.5971 18.9722 29.5865 18.9722H32.0272L31.3394 19.5767C29.0937 21.5491 28.5482 24.8591 30.0425 27.4482L31.2514 29.5416L30.3983 29.2524C27.5673 28.2937 24.4272 29.4766 22.933 32.065L21.7187 34.1683L21.542 33.2854ZM28.1358 40.8823C27.4089 42.1409 26.1457 42.424 25.2054 42.2687C24.265 42.1142 23.1587 41.4408 22.8748 40.0154L22.6866 39.072L25.7823 33.71C26.4954 32.4751 27.9927 31.9112 29.3432 32.3688L32.4457 33.4193L28.1373 40.8823H28.1358ZM40.0151 30.5814C39.4107 31.3182 38.2745 31.9395 36.898 31.4736L35.9867 31.1652L32.891 25.8032C32.1779 24.5683 32.4381 22.9899 33.5093 22.0488L35.9707 19.8873L40.2791 27.3503C41.006 28.6089 40.6196 29.8446 40.0151 30.5814Z" fill="#212B46"/>
</g>
<defs>
<clipPath id="clip0_160_710">
<rect width="44" height="45" fill="white" transform="translate(0.5 0.700073)"/>
</clipPath>
</defs>
</svg>
