<svg width="44" height="46" viewBox="0 0 44 46" fill="none" xmlns="http://www.w3.org/2000/svg">
<g clip-path="url(#clip0_160_712)">
<path d="M37.9933 16.876L38.1708 16.7199C40.1096 15.0175 40.7745 12.3572 39.8648 9.94248C38.955 7.52775 36.7002 5.96766 34.1202 5.96766H24.853L24.8071 5.73965C24.3022 3.20939 22.3304 1.30346 19.7849 0.884174C17.2393 0.464886 14.7603 1.63782 13.4703 3.87198L8.83899 11.8943L8.61864 11.8193C6.17483 10.9915 3.53821 11.7459 1.90237 13.7413C0.266538 15.7368 0.04236 18.469 1.33236 20.704L5.96366 28.7263L5.78844 28.8801C3.84962 30.5825 3.18472 33.2428 4.09446 35.6575C5.00419 38.0723 7.25901 39.6324 9.83977 39.6324H19.1031L19.149 39.8604C19.654 42.3906 21.6258 44.2966 24.1713 44.7158C24.5141 44.7725 24.8561 44.8 25.1943 44.8C27.3634 44.8 29.3703 43.6615 30.4867 41.728L35.1149 33.7126L35.3444 33.7906C36.0032 34.0133 36.675 34.1219 37.3383 34.1219C39.1364 34.1219 40.8656 33.3262 42.0607 31.8686C43.6965 29.8732 43.9207 27.1409 42.6299 24.906L37.9941 16.8768L37.9933 16.876ZM34.1195 9.25769C35.5732 9.25769 36.45 10.2103 36.7859 11.1024C37.1218 11.9945 37.092 13.2884 36.0001 14.2478L35.2771 14.8829H29.0857C27.6603 14.8829 26.4231 13.8683 26.1438 12.4704L25.5026 9.25846H34.1202L34.1195 9.25769ZM16.3188 5.517C17.0457 4.25837 18.3089 3.97528 19.2493 4.1306C20.1896 4.28515 21.296 4.95846 21.5798 6.38389L21.7681 7.32728L18.6724 12.6893C17.9593 13.9242 16.4619 14.4881 15.1115 14.0305L12.0089 12.98L16.3173 5.517H16.3188ZM4.18092 19.0589C3.45405 17.8003 3.8412 16.5646 4.44565 15.8278C4.90472 15.2677 5.67137 14.775 6.6163 14.775C6.9147 14.775 7.23147 14.824 7.56201 14.9364L8.47326 15.2448L11.569 20.6068C12.2821 21.8417 12.0219 23.4201 10.9507 24.3612L8.48934 26.5227L4.18092 19.0589ZM9.83977 36.3416C8.38604 36.3416 7.50921 35.389 7.17332 34.4968C6.83743 33.6047 6.86727 32.3109 7.9591 31.3514L8.68214 30.7164H14.8735C16.299 30.7164 17.5362 31.7309 17.8154 33.1288L18.4566 36.3408H9.83901L9.83977 36.3416ZM21.042 32.4853C20.4566 29.5541 17.8629 27.4263 14.8735 27.4263H12.445L13.1222 26.8318C15.3678 24.8593 15.9133 21.5494 14.419 18.9602L13.2048 16.8569L14.0579 17.1461C14.7182 17.3695 15.3946 17.4767 16.0641 17.4767C18.2638 17.4767 20.3771 16.3183 21.5232 14.3335L22.7405 12.2248L22.918 13.1132C23.5034 16.0443 26.0971 18.1722 29.0865 18.1722H31.5272L30.8394 18.7766C28.5937 20.7491 28.0482 24.059 29.5425 26.6482L30.7514 28.7416L29.8983 28.4524C27.0673 27.4937 23.9272 28.6765 22.433 31.265L21.2187 33.3683L21.042 32.4853ZM27.6358 40.0823C26.9089 41.3409 25.6457 41.624 24.7054 41.4687C23.765 41.3141 22.6587 40.6408 22.3748 39.2154L22.1866 38.272L25.2823 32.91C25.9954 31.6751 27.4927 31.1112 28.8432 31.5687L31.9457 32.6192L27.6373 40.0823H27.6358ZM39.5151 29.7814C38.9107 30.5182 37.7745 31.1395 36.398 30.6735L35.4867 30.3652L32.391 25.0032C31.6779 23.7683 31.9381 22.1898 33.0093 21.2487L35.4707 19.0872L39.7791 26.5503C40.506 27.8089 40.1196 29.0446 39.5151 29.7814Z" fill="#FAFAFA"/>
</g>
<defs>
<clipPath id="clip0_160_712">
<rect width="43" height="45" fill="white" transform="translate(0.5 0.700073)"/>
</clipPath>
</defs>
</svg>
